<?xml version="1.0" encoding="UTF-8" standalone="no"?>
<!-- Created with Inkscape (http://www.inkscape.org/) -->

<svg
   width="100"
   height="100"
   viewBox="0 0 26.458333 26.458334"
   version="1.1"
   id="svg5"
   inkscape:version="1.1.1 (3bf5ae0d25, 2021-09-20)"
   sodipodi:docname="mapicon.svg"
   xmlns:inkscape="http://www.inkscape.org/namespaces/inkscape"
   xmlns:sodipodi="http://sodipodi.sourceforge.net/DTD/sodipodi-0.dtd"
   xmlns="http://www.w3.org/2000/svg"
   xmlns:svg="http://www.w3.org/2000/svg">
  <sodipodi:namedview
     id="namedview7"
     pagecolor="#ffffff"
     bordercolor="#666666"
     borderopacity="1.0"
     inkscape:pageshadow="2"
     inkscape:pageopacity="0.0"
     inkscape:pagecheckerboard="0"
     inkscape:document-units="mm"
     showgrid="false"
     inkscape:zoom="0.61125"
     inkscape:cx="25.357873"
     inkscape:cy="264.21268"
     inkscape:window-width="1366"
     inkscape:window-height="697"
     inkscape:window-x="-8"
     inkscape:window-y="296"
     inkscape:window-maximized="1"
     inkscape:current-layer="layer1"
     width="209mm"
     units="px" />
  <defs
     id="defs2">
    <inkscape:path-effect
       effect="powerclip"
       id="path-effect1823"
       is_visible="true"
       lpeversion="1"
       inverse="true"
       flatten="false"
       hide_clip="false"
       message="Use fill-rule evenodd on &lt;b&gt;fill and stroke&lt;/b&gt; dialog if no flatten result after convert clip to paths." />
    <clipPath
       clipPathUnits="userSpaceOnUse"
       id="clipPath1819">
      <ellipse
         style="display:none;fill:#000000;fill-opacity:1;stroke:#000000;stroke-width:0.667253;paint-order:fill markers stroke"
         id="ellipse1821"
         ry="4.7431693"
         rx="5.5107417"
         cy="63.629642"
         cx="103.33887"
         d="m 108.84961,63.629642 a 5.5107417,4.7431693 0 0 1 -5.51074,4.74317 5.5107417,4.7431693 0 0 1 -5.510745,-4.74317 5.5107417,4.7431693 0 0 1 5.510745,-4.743169 5.5107417,4.7431693 0 0 1 5.51074,4.743169 z" />
      <path
         id="lpe_path-effect1823"
         style="fill:#000000;fill-opacity:1;stroke:#000000;stroke-width:0.667253;paint-order:fill markers stroke"
         class="powerclip"
         d="m 82.962809,43.150249 h 41.070271 v 47.72693 H 82.962809 Z m 25.886801,20.479393 a 5.5107417,4.7431693 0 0 0 -5.51074,-4.743169 5.5107417,4.7431693 0 0 0 -5.510745,4.743169 5.5107417,4.7431693 0 0 0 5.510745,4.74317 5.5107417,4.7431693 0 0 0 5.51074,-4.74317 z" />
    </clipPath>
  </defs>
  <g
     inkscape:label="Layer 1"
     inkscape:groupmode="layer"
     id="layer1">
    <path
       id="path31"
       style="fill:#ffb400;fill-opacity:1;stroke:#000000;stroke-width:0.66;stroke-opacity:0;paint-order:fill markers stroke"
       d="m 117.27531,69.474662 c -6.90101,14.681953 -14.0214,16.072286 -14.0214,16.072286 0,0 -8.044777,-0.05821 -14.021404,-17.507906 -3.977079,-11.611704 5.371458,-19.558796 14.021404,-19.558793 8.64994,-10e-7 19.36892,9.617515 14.0214,20.994413 z"
       sodipodi:nodetypes="scsss"
       clip-path="url(#clipPath1819)"
       inkscape:path-effect="#path-effect1823"
       inkscape:original-d="m 117.27531,69.474662 c -6.90101,14.681953 -14.0214,16.072286 -14.0214,16.072286 0,0 -8.044777,-0.05821 -14.021404,-17.507906 -3.977079,-11.611704 5.371458,-19.558796 14.021404,-19.558793 8.64994,-10e-7 19.36892,9.617515 14.0214,20.994413 z"
       transform="matrix(0.68694751,0,0,0.66134484,-57.633535,-30.763236)" />
  </g>
</svg>
